{"title":"Robbie Williams Live at Knebworth 2003 576p AC3 5.1","uid":5879262,"size":2550242574,"categoryP":"video","categoryS":"music_videos","magnet":"?xt=urn:btih:07fe4b4473707a80a648e20c39036c2f574ad62e&amp;dn=Robbie+Williams+Live+at+Knebworth+2003+576p+AC3+5.1&amp;tr=udp%3A%2F%2Ftracker.openbittorrent.com%3A80&amp;tr=udp%3A%2F%2Fopen.demonii.com%3A1337&amp;tr=udp%3A%2F%2Ftracker.coppersurfer.tk%3A6969&amp;tr=udp%3A%2F%2Fexodus.desync.com%3A6969","seeders":0,"leechers":0,"uploader":"highresjunkie","files":1,"time":1286776348,"description":"\nTrack List:\n\nLet Me Entertain You\nLet Love Be Your Energy\nWe Will Rock You\nMonsoon\nCome Undone\nStrong\nMe and My Monkey\nHot Fuge\nMr Bojangles\nShe's The One\nSuperme\nNo Regrets\nKids\nBetter Man\nMan's Song\nFeel\nRock DJ\nAngels\n\n\nTotal time: 1.55:13\n\n\nFormat                           : AVC\nFormat/Info                      : Advanced Video Codec\nFormat profile                   : &lt;a class=&quot;__cf_email__&quot; href=&quot;/cdn-cgi/l/email-protection&quot; data-cfemail=&quot;90d8f9f7f8d0dca3bea0&quot;&gt;[email&amp;#160;protected]&lt;/a&gt;&lt;script cf-hash='f9e31' type=&quot;text/javascript&quot;&gt;\n/* &lt;![CDATA[ */!function(){try{var t=&quot;currentScript&quot;in document?document.currentScript:function(){for(var t=document.getElementsByTagName(&quot;script&quot;),e=t.length;e--;)if(t[e].getAttribute(&quot;cf-hash&quot;))return t[e]}();if(t&amp;&amp;t.previousSibling){var e,r,n,i,c=t.previousSibling,a=c.getAttribute(&quot;data-cfemail&quot;);if(a){for(e=&quot;&quot;,r=parseInt(a.substr(0,2),16),n=2;a.length-n;n+=2)i=parseInt(a.substr(n,2),16)^r,e+=String.fromCharCode(i);e=document.createTextNode(e),c.parentNode.replaceChild(e,c)}}}catch(u){}}();/* ]]&gt; */&lt;/script&gt;\nFormat settings, CABAC           : Yes\nFormat settings, ReFrames        : 4 frames\nMuxing mode                      : Container profile=&lt;a class=&quot;__cf_email__&quot; href=&quot;/cdn-cgi/l/email-protection&quot; data-cfemail=&quot;82d7ece9ecedf5ecc2b1acb2&quot;&gt;[email&amp;#160;protected]&lt;/a&gt;&lt;script cf-hash='f9e31' type=&quot;text/javascript&quot;&gt;\n/* &lt;![CDATA[ */!function(){try{var t=&quot;currentScript&quot;in document?document.currentScript:function(){for(var t=document.getElementsByTagName(&quot;script&quot;),e=t.length;e--;)if(t[e].getAttribute(&quot;cf-hash&quot;))return t[e]}();if(t&amp;&amp;t.previousSibling){var e,r,n,i,c=t.previousSibling,a=c.getAttribute(&quot;data-cfemail&quot;);if(a){for(e=&quot;&quot;,r=parseInt(a.substr(0,2),16),n=2;a.length-n;n+=2)i=parseInt(a.substr(n,2),16)^r,e+=String.fromCharCode(i);e=document.createTextNode(e),c.parentNode.replaceChild(e,c)}}}catch(u){}}();/* ]]&gt; */&lt;/script&gt;\nCodec ID                         : V_MPEG4/ISO/AVC\nDuration                         : 1h 55mn\nBit rate                         : 2 500 Kbps\nWidth                            : 720 pixels\nHeight                           : 576 pixels\nDisplay aspect ratio             : 16:9\nFrame rate mode                  : Variable\nFrame rate                       : 25.000 fps\nStandard                         : PAL\nColor space                      : YUV\nChroma subsampling               : 4:2:0\nBit depth                        : 8 bits\nScan type                        : Progressive\nBits/(Pixel*Frame)               : 0.241\nStream size                      : 1.97 GiB (83%)\nWriting library                  : x264 core 93 r1542 5b86182\n                        \n\nAudio\nID                               : 2\nFormat                           : AC-3\nFormat/Info                      : Audio Coding 3\nMode extension                   : CM (complete main)\nCodec ID                         : A_AC3\nDuration                         : 1h 55mn\nBit rate mode                    : Constant\nBit rate                         : 448 Kbps\nChannel(s)                       : 6 channels\nChannel positions                : Front: L C R, Side: L R, LFE\nSampling rate                    : 48.0 KHz\nBit depth                        : 16 bits\nVideo delay                      : -40ms\nStream size                      : 369 MiB (15%)\nLanguage                         : English\n","torrent":{"xt":"urn:btih:07fe4b4473707a80a648e20c39036c2f574ad62e","amp;dn":"Robbie+Williams+Live+at+Knebworth+2003+576p+AC3+5.1","amp;tr":["udp%3A%2F%2Ftracker.openbittorrent.com%3A80","udp%3A%2F%2Fopen.demonii.com%3A1337","udp%3A%2F%2Ftracker.coppersurfer.tk%3A6969","udp%3A%2F%2Fexodus.desync.com%3A6969"],"infoHash":"07fe4b4473707a80a648e20c39036c2f574ad62e","infoHashBuffer":{"type":"Buffer","data":[7,254,75,68,115,112,122,128,166,72,226,12,57,3,108,47,87,74,214,46]},"announce":[],"urlList":[]}}